<svg viewBox="0 0 500 500" xmlns="http://www.w3.org/2000/svg"><g fill="#0f52ba" fill-rule="evenodd"><g transform="translate(58 344)"><path d="m.51 20.13c0-5.228 1.908-9.678 5.724-13.351 3.816-3.673 9.757-5.509 17.824-5.509 5.792 0 11.485 1.34 17.08 4.02v7.544c-5.06-2.846-10.521-4.268-16.38-4.268-5.451 0-9.624.992-12.516 2.977-2.892 1.985-4.337 4.848-4.337 8.586 0 2.317.939 4.252 2.817 5.807 1.878 1.556 4.197 2.705 6.956 3.449 2.759.744 5.781 1.696 9.06 2.853 3.283 1.158 6.299 2.416 9.05 3.772 2.749 1.357 5.065 3.457 6.948 6.304 1.884 2.846 2.826 6.304 2.826 10.374 0 5.624-2.134 10.04-6.399 13.252-4.265 3.21-10.215 4.814-17.846 4.814-7.434 0-14.168-1.588-20.2-4.765v-7.943c5.4 3.607 11.952 5.41 19.653 5.41 11.567 0 17.369-3.59 17.402-10.77 0-3.044-.94-5.6-2.817-7.669-1.878-2.068-4.197-3.582-6.956-4.542l-9.03-2.977c-3.258-1.059-6.274-2.135-9.04-3.226-2.772-1.091-5.1-2.838-6.987-5.236-1.889-2.399-2.831-5.368-2.831-8.908"/><path d="m58.746 48.621v-29.382h7.392v29.713c0 5.15 1.129 8.922 3.39 11.317 2.26 2.394 5.801 3.59 10.619 3.59 4.752 0 8.277-1.197 10.57-3.59 2.293-2.393 3.439-6.165 3.439-11.317v-29.713h7.392v29.382c0 7.05-1.864 12.5-5.59 16.354-3.728 3.854-8.997 5.783-15.811 5.783-6.814 0-12.08-1.927-15.812-5.783-3.728-3.856-5.589-9.305-5.589-16.354"/><path d="m116.88 69.964v-46.755c6.568-3.243 13.384-4.864 20.452-4.864 5.589 0 10.08 1.389 13.469 4.169 6.565-2.78 12.878-4.169 18.945-4.169 6.201 0 11.01 1.621 14.428 4.864 3.415 3.243 5.124 7.808 5.124 13.698v33.06h-7.392v-33.05c0-1.423-.134-2.688-.398-3.796-.267-1.108-.806-2.291-1.62-3.549-.815-1.258-2.128-2.225-3.938-2.904-1.81-.679-4.047-1.018-6.706-1.018-4.29 0-8.997.844-14.12 2.531 1.107 2.448 1.659 5.36 1.659 8.736v33.06h-7.392v-33.06c0-1.489-.142-2.788-.423-3.896-.281-1.108-.831-2.274-1.644-3.5-.815-1.224-2.154-2.176-4.01-2.853-1.86-.678-4.153-1.018-6.879-1.018-4.154 0-8.209.613-12.164 1.837v42.486h-7.39"/><path d="m203.64 57.73c-1.432-3.623-2.148-8.02-2.148-13.177 0-5.161.716-9.555 2.148-13.177 1.432-3.623 3.38-6.328 5.843-8.115 2.463-1.787 4.969-3.052 7.517-3.796 2.547-.744 5.36-1.117 8.44-1.117 3.08 0 5.91.373 8.491 1.117 2.581.744 5.103 2.01 7.566 3.796 2.463 1.786 4.411 4.492 5.843 8.115 1.432 3.623 2.148 8.02 2.148 13.177 0 5.161-.716 9.555-2.148 13.177-1.432 3.623-3.38 6.328-5.843 8.115-2.463 1.787-4.987 3.052-7.566 3.796-2.58.744-5.411 1.117-8.491 1.117-3.08 0-5.893-.373-8.44-1.117-2.547-.744-5.05-2.01-7.517-3.796-2.463-1.786-4.411-4.492-5.843-8.115m9.19-28.02c-2.631 3.11-3.945 8.06-3.945 14.84 0 6.784 1.316 11.73 3.945 14.84 2.63 3.11 6.842 4.666 12.637 4.666 5.795 0 10.01-1.539 12.661-4.616 2.647-3.078 3.971-8.04 3.971-14.89 0-6.85-1.324-11.812-3.971-14.89-2.647-3.078-6.867-4.616-12.661-4.616-5.793 0-10.01 1.556-12.637 4.666"/><path d="m263.07 69.964v-67.799h7.991l23.424 34.444 23.525-34.444h7.991v67.797h-7.392v-55.786l-24.12 34.544-24.02-34.544v55.787h-7.393"/><path d="m340.14 45.25v-.347-.397c0-17.438 7.45-26.16 22.35-26.16 3.111 0 5.936.488 8.469 1.464 2.533.976 4.543 2.126 6.03 3.449 1.489 1.324 2.797 3.052 3.924 5.187 1.125 2.135 1.928 3.946 2.408 5.435.48 1.489.852 3.292 1.118 5.41.264 2.051.396 3.342.396 3.871v2.184l-.196 3.573h-37.11c.466 5.095 2.034 8.794 4.702 11.09 2.668 2.298 6.62 3.449 11.858 3.449 7.399 0 13.222-1.258 17.47-3.772v7.544c-4.913 2.349-10.868 3.524-17.869 3.524h-.301c-2.988 0-5.725-.356-8.214-1.067-2.49-.712-4.938-1.944-7.345-3.697-2.407-1.753-4.29-4.392-5.651-7.916-1.361-3.524-2.04-7.801-2.04-12.83m7.392-2.829h29.918c0-1.158-.142-2.448-.426-3.871-.283-1.423-.851-3.251-1.701-5.485-.85-2.233-2.385-4.094-4.602-5.584-2.219-1.489-4.961-2.233-8.23-2.233-5.069 0-8.746 1.307-11.03 3.92-2.284 2.615-3.594 7.03-3.927 13.252"/></g><path d="m72.44 319h357.01l59.55-239-119.13 119.5-119.38-119.5-116.21 119.5-122.29-119.5 60.44 239"/></g></svg>